<svg width="420" height="190" viewBox="0 0 420 190" fill="none" xmlns="http://www.w3.org/2000/svg">
  <rect width="420" height="190" rx="12" fill="#0D1117"/>

  <text x="28" y="36" fill="#F0F6FC" font-family="Segoe UI, Arial, sans-serif" font-size="20" font-weight="700">
    Contributions
  </text>

  <line x1="28" y1="52" x2="392" y2="52" stroke="#30363D"/>

  <text x="78" y="96" text-anchor="middle" fill="#79C0FF" font-family="Segoe UI, Arial, sans-serif" font-size="30" font-weight="800">
    162
  </text>
  <text x="78" y="124" text-anchor="middle" fill="#F0F6FC" font-family="Segoe UI, Arial, sans-serif" font-size="13" font-weight="700">
    Total
  </text>
  <text x="78" y="145" text-anchor="middle" fill="#8B949E" font-family="Segoe UI, Arial, sans-serif" font-size="12">
    last 12 months
  </text>

  <line x1="148" y1="70" x2="148" y2="150" stroke="#30363D"/>

  <circle cx="210" cy="90" r="33" stroke="#EF4444" stroke-width="4.5" fill="none"/>

  <circle cx="210" cy="54" r="11" fill="#0D1117" stroke="#EF4444" stroke-width="2.5"/>

  <path
    d="M210 44
       C207.2 48.5, 207.2 51.5, 209.1 54.2
       C205.5 56.9, 203.6 61.2, 203.6 65.8
       C203.6 72, 206.2 76.2, 210 76.2
       C213.8 76.2, 216.4 72, 216.4 65.8
       C216.4 61.2, 214.5 56.9, 210.9 54.2
       C212.8 51.5, 212.8 48.5, 210 44Z"
    fill="#EF4444"/>

  <path
    d="M210 56
       C208.7 58.4, 208.8 60.3, 209.6 61.8
       C208.1 63.1, 207.3 65, 207.3 67
       C207.3 70.3, 208.5 72.3, 210 72.3
       C211.5 72.3, 212.7 70.3, 212.7 67
       C212.7 65, 211.9 63.1, 210.4 61.8
       C211.2 60.3, 211.3 58.4, 210 56Z"
    fill="#0D1117"/>

  <text x="210" y="103" text-anchor="middle" fill="#F59E0B" font-family="Segoe UI, Arial, sans-serif" font-size="28" font-weight="800">
    3
  </text>
  <text x="210" y="143" text-anchor="middle" fill="#F0F6FC" font-family="Segoe UI, Arial, sans-serif" font-size="13" font-weight="700">
    Current streak
  </text>
  <text x="210" y="163" text-anchor="middle" fill="#F0F6FC" font-family="Segoe UI, Arial, sans-serif" font-size="12" font-weight="600">
    days
  </text>

  <line x1="272" y1="70" x2="272" y2="150" stroke="#30363D"/>

  <text x="334" y="96" text-anchor="middle" fill="#A855F7" font-family="Segoe UI, Arial, sans-serif" font-size="30" font-weight="800">
    5
  </text>
  <text x="334" y="124" text-anchor="middle" fill="#F0F6FC" font-family="Segoe UI, Arial, sans-serif" font-size="13" font-weight="700">
    Longest streak
  </text>
  <text x="334" y="145" text-anchor="middle" fill="#8B949E" font-family="Segoe UI, Arial, sans-serif" font-size="12">
    days
  </text>
</svg>