<svg width="420" height="210" viewBox="0 0 420 210" fill="none" xmlns="http://www.w3.org/2000/svg">
  <rect width="420" height="210" rx="12" fill="#0D1117"/>

  <text x="28" y="36" fill="#F0F6FC" font-family="Segoe UI, Arial, sans-serif" font-size="20" font-weight="700">
    Contributions
  </text>

  <line x1="28" y1="52" x2="392" y2="52" stroke="#30363D"/>

  <text x="78" y="98" text-anchor="middle" fill="#79C0FF" font-family="Segoe UI, Arial, sans-serif" font-size="30" font-weight="800">
    157
  </text>
  <text x="78" y="126" text-anchor="middle" fill="#F0F6FC" font-family="Segoe UI, Arial, sans-serif" font-size="13" font-weight="700">
    Total
  </text>
  <text x="78" y="147" text-anchor="middle" fill="#8B949E" font-family="Segoe UI, Arial, sans-serif" font-size="12">
    last 12 months
  </text>

  <line x1="150" y1="70" x2="150" y2="154" stroke="#30363D"/>

  <circle cx="210" cy="96" r="36" stroke="#12B5EA" stroke-width="4.5" fill="none"/>

  <path
    d="M210 40
       C206 46, 205 50, 208 55
       C202 59, 199 66, 199 73
       C199 82, 204 89, 210 89
       C216 89, 221 82, 221 73
       C221 66, 218 59, 212 55
       C215 50, 214 45, 210 40Z"
    fill="#12B5EA"/>

  <path
    d="M210 55
       C208 59, 208 62, 209 65
       C206 68, 205 71, 205 75
       C205 80, 207 83, 210 83
       C213 83, 215 80, 215 75
       C215 71, 214 68, 211 65
       C212 61, 212 58, 210 55Z"
    fill="#0D1117"/>

  <text x="210" y="110" text-anchor="middle" fill="#F0F6FC" font-family="Segoe UI, Arial, sans-serif" font-size="28" font-weight="800">
    3
  </text>
  <text x="210" y="151" text-anchor="middle" fill="#12B5EA" font-family="Segoe UI, Arial, sans-serif" font-size="13" font-weight="700">
    Current streak
  </text>
  <text x="210" y="171" text-anchor="middle" fill="#F0F6FC" font-family="Segoe UI, Arial, sans-serif" font-size="12" font-weight="600">
    days
  </text>

  <line x1="270" y1="70" x2="270" y2="154" stroke="#30363D"/>

  <text x="330" y="98" text-anchor="middle" fill="#79C0FF" font-family="Segoe UI, Arial, sans-serif" font-size="30" font-weight="800">
    5
  </text>
  <text x="330" y="126" text-anchor="middle" fill="#F0F6FC" font-family="Segoe UI, Arial, sans-serif" font-size="13" font-weight="700">
    Longest streak
  </text>
  <text x="330" y="147" text-anchor="middle" fill="#8B949E" font-family="Segoe UI, Arial, sans-serif" font-size="12">
    days
  </text>

  <line x1="28" y1="182" x2="392" y2="182" stroke="#30363D"/>
  <text x="28" y="194" fill="#8B949E" font-family="Segoe UI, Arial, sans-serif" font-size="11">
    Auto-generated from public GitHub contribution data.
  </text>
</svg>