<svg width="420" height="190" viewBox="0 0 420 190" fill="none" xmlns="http://www.w3.org/2000/svg">
  <rect width="420" height="190" rx="12" fill="#0D1117"/>

  <text x="28" y="36" fill="#F0F6FC" font-family="Segoe UI, Arial, sans-serif" font-size="20" font-weight="700">
    Contributions
  </text>

  <line x1="28" y1="52" x2="392" y2="52" stroke="#30363D"/>

  <text x="78" y="96" text-anchor="middle" fill="#79C0FF" font-family="Segoe UI, Arial, sans-serif" font-size="30" font-weight="800">
    164
  </text>
  <text x="78" y="124" text-anchor="middle" fill="#F0F6FC" font-family="Segoe UI, Arial, sans-serif" font-size="13" font-weight="700">
    Total
  </text>
  <text x="78" y="145" text-anchor="middle" fill="#8B949E" font-family="Segoe UI, Arial, sans-serif" font-size="12">
    last 12 months
  </text>

  <line x1="148" y1="70" x2="148" y2="150" stroke="#30363D"/>

  <circle cx="210" cy="90" r="33" stroke="#EF4444" stroke-width="4.5" fill="none"/>

  <path
    d="M210 41
       C206 47, 204 53, 205 59
       C200.5 63, 198 69, 198 75
       C198 84, 203 90, 210 90
       C217 90, 222 84, 222 75
       C222 69, 219.5 63, 215 59
       C216 53, 214 47, 210 41Z"
    fill="#EF4444"/>

  <path
    d="M210 56
       C208.2 59.2, 208.2 62, 209.2 64.3
       C207.2 66.3, 206 69.2, 206 72.5
       C206 77, 207.8 80, 210 80
       C212.2 80, 214 77, 214 72.5
       C214 69.2, 212.8 66.3, 210.8 64.3
       C211.8 62, 211.8 59.2, 210 56Z"
    fill="#0D1117"/>

  <text x="210" y="103" text-anchor="middle" fill="#F59E0B" font-family="Segoe UI, Arial, sans-serif" font-size="28" font-weight="800">
    3
  </text>
  <text x="210" y="143" text-anchor="middle" fill="#F0F6FC" font-family="Segoe UI, Arial, sans-serif" font-size="13" font-weight="700">
    Current streak
  </text>
  <text x="210" y="163" text-anchor="middle" fill="#F0F6FC" font-family="Segoe UI, Arial, sans-serif" font-size="12" font-weight="600">
    days
  </text>

  <line x1="272" y1="70" x2="272" y2="150" stroke="#30363D"/>

  <text x="334" y="96" text-anchor="middle" fill="#A855F7" font-family="Segoe UI, Arial, sans-serif" font-size="30" font-weight="800">
    5
  </text>
  <text x="334" y="124" text-anchor="middle" fill="#F0F6FC" font-family="Segoe UI, Arial, sans-serif" font-size="13" font-weight="700">
    Longest streak
  </text>
  <text x="334" y="145" text-anchor="middle" fill="#8B949E" font-family="Segoe UI, Arial, sans-serif" font-size="12">
    days
  </text>
</svg>